<?xml version="1.0" encoding="iso-8859-1"?>
<!-- Generator: Adobe Illustrator 19.0.0, SVG Export Plug-In . SVG Version: 6.00 Build 0)  -->
<svg version="1.1" id="Capa_1" xmlns="http://www.w3.org/2000/svg" xmlns:xlink="http://www.w3.org/1999/xlink" x="0px" y="0px"
	 viewBox="0 0 512.001 512.001" style="enable-background:new 0 0 512.001 512.001;" xml:space="preserve">
<circle style="fill:#FFDC00;" cx="256" cy="256" r="256"/>
<path style="fill:#FFC000;" d="M512,256c0-6.458-0.245-12.859-0.715-19.197L424.5,150.018l-337,198.365l163.555,163.555
	c1.646,0.031,3.292,0.063,4.945,0.063C397.385,512,512,397.385,512,256z"/>
<rect x="218.73" y="342.43" style="fill:#4D4D4D;" width="74.54" height="41.469"/>
<g>
	<rect x="255.95" y="342.43" style="fill:#333333;" width="37.32" height="41.469"/>
	<rect x="87.5" y="150.02" style="fill:#333333;" width="337" height="198.37"/>
</g>
<rect x="255.95" y="150.02" style="fill:#1A1A1A;" width="168.55" height="198.37"/>
<rect x="105.87" y="165.01" style="fill:#4D4D4D;" width="300.25" height="164.83"/>
<g>
	<rect x="255.95" y="165.01" style="fill:#333333;" width="150.18" height="164.83"/>
	<rect x="194.85" y="374.45" style="fill:#333333;" width="122.31" height="15.748"/>
</g>
<rect x="255.95" y="374.45" style="fill:#1A1A1A;" width="61.2" height="15.748"/>
<g>
</g>
<g>
</g>
<g>
</g>
<g>
</g>
<g>
</g>
<g>
</g>
<g>
</g>
<g>
</g>
<g>
</g>
<g>
</g>
<g>
</g>
<g>
</g>
<g>
</g>
<g>
</g>
<g>
</g>
</svg>
